<svg width="16" height="24" viewBox="0 0 16 24" fill="none" xmlns="http://www.w3.org/2000/svg">
<path d="M9.95328 1.51687H9.9574H9.95328ZM9.95328 1.51687L8.26093 10.4085L14.3918 10.4291L6.04655 22.4831L7.73893 12.7009L1.60843 12.6795L9.95328 1.51687ZM9.95443 0.0168926C9.91393 0.0168926 9.87345 0.0183691 9.8337 0.0213457C9.56895 0.0427441 9.39342 0.131244 9.18532 0.271119C9.06814 0.349246 8.96249 0.443412 8.87145 0.550869C8.84411 0.583121 8.81832 0.616659 8.79418 0.651369L0.389302 11.775C0.057427 12.2299 0.008677 12.8303 0.263677 13.332C0.518302 13.8338 1.03318 14.1518 1.59755 14.1559L5.9273 14.1874L4.56605 22.2075C4.43668 22.8968 4.80418 23.5838 5.45105 23.8605C5.63904 23.9413 5.84154 23.9829 6.04615 23.9828C6.51753 23.9828 6.9049 23.7623 7.19555 23.364L15.6109 11.31C15.9428 10.8551 15.9912 10.254 15.7365 9.75297C15.4819 9.25122 14.967 8.9332 14.4027 8.9291L10.0729 8.9216L11.4196 1.86972C11.4481 1.75427 11.4625 1.63577 11.4623 1.51685C11.4623 0.705346 10.8162 0.0438457 10.0077 0.0175957C9.9897 0.0168457 9.97205 0.0168457 9.95445 0.0168457L9.95443 0.0168926Z" fill="#1D2527"/>
</svg>
