<svg width="42" height="42" viewBox="0 0 42 42" fill="none" xmlns="http://www.w3.org/2000/svg">
<path d="M37.0781 6.5625H4.92188C4.74141 6.5625 4.59375 6.71016 4.59375 6.89062V9.51562C4.59375 9.69609 4.74141 9.84375 4.92188 9.84375H37.0781C37.2586 9.84375 37.4062 9.69609 37.4062 9.51562V6.89062C37.4062 6.71016 37.2586 6.5625 37.0781 6.5625ZM37.0781 32.1562H4.92188C4.74141 32.1562 4.59375 32.3039 4.59375 32.4844V35.1094C4.59375 35.2898 4.74141 35.4375 4.92188 35.4375H37.0781C37.2586 35.4375 37.4062 35.2898 37.4062 35.1094V32.4844C37.4062 32.3039 37.2586 32.1562 37.0781 32.1562ZM37.0781 19.3594H4.92188C4.74141 19.3594 4.59375 19.507 4.59375 19.6875V22.3125C4.59375 22.493 4.74141 22.6406 4.92188 22.6406H37.0781C37.2586 22.6406 37.4062 22.493 37.4062 22.3125V19.6875C37.4062 19.507 37.2586 19.3594 37.0781 19.3594Z" fill="#EBEFF2"/>
</svg>
