<svg width="20" height="19" viewBox="0 0 20 19" fill="none" xmlns="http://www.w3.org/2000/svg">
<path d="M11.1999 10C11.8364 10 12.4469 10.2529 12.897 10.7029C13.347 11.153 13.5999 11.7635 13.5999 12.4V14.2C13.5999 16.6648 11.0943 18.4 6.9999 18.4C2.9055 18.4 0.399902 16.6648 0.399902 14.2V12.4C0.399902 11.7635 0.652759 11.153 1.10285 10.7029C1.55293 10.2529 2.16338 10 2.7999 10H11.1999ZM11.1999 11.2H2.7999C2.48164 11.2 2.17642 11.3264 1.95137 11.5515C1.72633 11.7765 1.5999 12.0817 1.5999 12.4V14.2C1.5999 15.8884 3.4947 17.2 6.9999 17.2C10.5051 17.2 12.3999 15.8884 12.3999 14.2V12.4C12.3999 12.0817 12.2735 11.7765 12.0484 11.5515C11.8234 11.3264 11.5182 11.2 11.1999 11.2ZM17.1999 10C17.8364 10 18.4469 10.2529 18.897 10.7029C19.347 11.153 19.5999 11.7635 19.5999 12.4V13C19.5999 15.5068 17.7183 17.2 14.1999 17.2C14.0307 17.2 13.8639 17.1964 13.7031 17.188C13.9496 16.9025 14.1599 16.5877 14.3295 16.2508L14.4459 15.9952H14.4927C17.1711 15.9172 18.3999 14.752 18.3999 13V12.4C18.3999 12.0817 18.2735 11.7765 18.0484 11.5515C17.8234 11.3264 17.5182 11.2 17.1999 11.2H14.5947C14.4377 10.7573 14.1955 10.3497 13.8819 10H17.1999ZM6.9999 0.399994C7.55145 0.399994 8.0976 0.50863 8.60717 0.7197C9.11674 0.93077 9.57974 1.24014 9.96975 1.63015C10.3598 2.02015 10.6691 2.48316 10.8802 2.99272C11.0913 3.50229 11.1999 4.04844 11.1999 4.59999C11.1999 5.15155 11.0913 5.6977 10.8802 6.20727C10.6691 6.71683 10.3598 7.17984 9.96975 7.56984C9.57974 7.95985 9.11674 8.26922 8.60717 8.48029C8.0976 8.69136 7.55145 8.8 6.9999 8.8C5.88599 8.8 4.81771 8.3575 4.03005 7.56984C3.2424 6.78219 2.7999 5.7139 2.7999 4.59999C2.7999 3.48609 3.2424 2.4178 4.03005 1.63015C4.81771 0.842493 5.88599 0.399994 6.9999 0.399994ZM15.3999 2.79999C16.1956 2.79999 16.9586 3.11606 17.5212 3.67867C18.0838 4.24128 18.3999 5.00434 18.3999 5.79999C18.3999 6.59564 18.0838 7.35871 17.5212 7.92132C16.9586 8.48392 16.1956 8.8 15.3999 8.8C14.6043 8.8 13.8412 8.48392 13.2786 7.92132C12.716 7.35871 12.3999 6.59564 12.3999 5.79999C12.3999 5.00434 12.716 4.24128 13.2786 3.67867C13.8412 3.11606 14.6043 2.79999 15.3999 2.79999ZM6.9999 1.59999C6.20425 1.59999 5.44119 1.91606 4.87858 2.47867C4.31597 3.04128 3.9999 3.80434 3.9999 4.59999C3.9999 5.39564 4.31597 6.15871 4.87858 6.72131C5.44119 7.28392 6.20425 7.59999 6.9999 7.59999C7.79555 7.59999 8.55861 7.28392 9.12122 6.72131C9.68383 6.15871 9.9999 5.39564 9.9999 4.59999C9.9999 3.80434 9.68383 3.04128 9.12122 2.47867C8.55861 1.91606 7.79555 1.59999 6.9999 1.59999ZM15.3999 3.99999C14.9225 3.99999 14.4647 4.18964 14.1271 4.5272C13.7895 4.86477 13.5999 5.32261 13.5999 5.79999C13.5999 6.27738 13.7895 6.73522 14.1271 7.07279C14.4647 7.41035 14.9225 7.59999 15.3999 7.59999C15.8773 7.59999 16.3351 7.41035 16.6727 7.07279C17.0103 6.73522 17.1999 6.27738 17.1999 5.79999C17.1999 5.32261 17.0103 4.86477 16.6727 4.5272C16.3351 4.18964 15.8773 3.99999 15.3999 3.99999Z" fill="#1D2527"/>
</svg>
