<svg width="24" height="26" viewBox="0 0 24 26" fill="none" xmlns="http://www.w3.org/2000/svg">
<path d="M22.8281 20.8625C22.2386 19.4662 21.3832 18.1978 20.3094 17.1281C19.2389 16.0553 17.9707 15.2 16.575 14.6094C16.5625 14.6031 16.55 14.6 16.5375 14.5938C18.4844 13.1875 19.75 10.8969 19.75 8.3125C19.75 4.03125 16.2813 0.5625 12 0.5625C7.71877 0.5625 4.25002 4.03125 4.25002 8.3125C4.25002 10.8969 5.51564 13.1875 7.46252 14.5969C7.45002 14.6031 7.43752 14.6062 7.42502 14.6125C6.02502 15.2031 4.76877 16.05 3.69064 17.1313C2.61786 18.2018 1.76253 19.4699 1.17189 20.8656C0.591649 22.232 0.278711 23.697 0.250017 25.1812C0.249183 25.2146 0.255033 25.2478 0.267223 25.2788C0.279413 25.3099 0.297695 25.3382 0.320993 25.3621C0.344292 25.386 0.372134 25.4049 0.40288 25.4179C0.433626 25.4308 0.466654 25.4375 0.500017 25.4375H2.37502C2.51252 25.4375 2.62189 25.3281 2.62502 25.1938C2.68752 22.7812 3.65627 20.5219 5.36877 18.8094C7.14064 17.0375 9.49377 16.0625 12 16.0625C14.5063 16.0625 16.8594 17.0375 18.6313 18.8094C20.3438 20.5219 21.3125 22.7812 21.375 25.1938C21.3781 25.3313 21.4875 25.4375 21.625 25.4375H23.5C23.5334 25.4375 23.5664 25.4308 23.5972 25.4179C23.6279 25.4049 23.6557 25.386 23.679 25.3621C23.7023 25.3382 23.7206 25.3099 23.7328 25.2788C23.745 25.2478 23.7509 25.2146 23.75 25.1812C23.7188 23.6875 23.4094 22.2344 22.8281 20.8625ZM12 13.6875C10.5656 13.6875 9.21564 13.1281 8.20002 12.1125C7.18439 11.0969 6.62502 9.74687 6.62502 8.3125C6.62502 6.87813 7.18439 5.52812 8.20002 4.5125C9.21564 3.49687 10.5656 2.9375 12 2.9375C13.4344 2.9375 14.7844 3.49687 15.8 4.5125C16.8156 5.52812 17.375 6.87813 17.375 8.3125C17.375 9.74687 16.8156 11.0969 15.8 12.1125C14.7844 13.1281 13.4344 13.6875 12 13.6875Z" fill="white"/>
</svg>
